<mxfile host="drawio-plugin" modified="2021-08-08T13:47:15.803Z" agent="5.0 (Windows NT 6.2; Win64; x64) AppleWebKit/537.36 (KHTML, like Gecko) Chrome/87.0.4280.141 Safari/537.36" etag="Yfg9jQP-Xu-ZGquOstW3" version="14.6.6" type="embed"><diagram id="7MxxzwHJM8aWSUqH6DCI" name="Seite-1"><mxGraphModel dx="778" dy="528" grid="1" gridSize="10" guides="1" tooltips="1" connect="1" arrows="1" fold="1" page="1" pageScale="1" pageWidth="827" pageHeight="1169" math="0" shadow="0"><root><mxCell id="0"/><mxCell id="1" parent="0"/><mxCell id="5WoYeaTMIYlhVhKQOqjA-8" value="Chess" style="swimlane;fontStyle=1;align=center;verticalAlign=top;childLayout=stackLayout;horizontal=1;startSize=30;horizontalStack=0;resizeParent=1;resizeParentMax=0;resizeLast=0;collapsible=1;marginBottom=0;" parent="1" vertex="1"><mxGeometry x="40" y="40" width="160" height="130" as="geometry"/></mxCell><mxCell id="5WoYeaTMIYlhVhKQOqjA-9" value="engine:ChessEngine&#10;window:ChessGUI&#10;board:ChessBoard" style="text;strokeColor=none;fillColor=none;align=left;verticalAlign=top;spacingLeft=4;spacingRight=4;overflow=hidden;rotatable=0;points=[[0,0.5],[1,0.5]];portConstraint=eastwest;" parent="5WoYeaTMIYlhVhKQOqjA-8" vertex="1"><mxGeometry y="30" width="160" height="50" as="geometry"/></mxCell><mxCell id="5WoYeaTMIYlhVhKQOqjA-10" value="" style="line;strokeWidth=1;fillColor=none;align=left;verticalAlign=middle;spacingTop=-1;spacingLeft=3;spacingRight=3;rotatable=0;labelPosition=right;points=[];portConstraint=eastwest;" parent="5WoYeaTMIYlhVhKQOqjA-8" vertex="1"><mxGeometry y="80" width="160" height="8" as="geometry"/></mxCell><mxCell id="5WoYeaTMIYlhVhKQOqjA-11" value="+ method(type): type&#10;" style="text;strokeColor=none;fillColor=none;align=left;verticalAlign=top;spacingLeft=4;spacingRight=4;overflow=hidden;rotatable=0;points=[[0,0.5],[1,0.5]];portConstraint=eastwest;" parent="5WoYeaTMIYlhVhKQOqjA-8" vertex="1"><mxGeometry y="88" width="160" height="42" as="geometry"/></mxCell><mxCell id="5WoYeaTMIYlhVhKQOqjA-12" value="ChessEngine" style="swimlane;fontStyle=1;align=center;verticalAlign=top;childLayout=stackLayout;horizontal=1;startSize=26;horizontalStack=0;resizeParent=1;resizeParentMax=0;resizeLast=0;collapsible=1;marginBottom=0;" parent="1" vertex="1"><mxGeometry x="40" y="480" width="460" height="174" as="geometry"/></mxCell><mxCell id="5WoYeaTMIYlhVhKQOqjA-14" value="" style="line;strokeWidth=1;fillColor=none;align=left;verticalAlign=middle;spacingTop=-1;spacingLeft=3;spacingRight=3;rotatable=0;labelPosition=right;points=[];portConstraint=eastwest;" parent="5WoYeaTMIYlhVhKQOqjA-12" vertex="1"><mxGeometry y="26" width="460" height="8" as="geometry"/></mxCell><mxCell id="5WoYeaTMIYlhVhKQOqjA-15" value="showNextValidMoves(currentPosition, ChessPiece, ChessTile[][]):List&lt;ChessTile&gt;&#10;" style="text;strokeColor=none;fillColor=none;align=left;verticalAlign=top;spacingLeft=4;spacingRight=4;overflow=hidden;rotatable=0;points=[[0,0.5],[1,0.5]];portConstraint=eastwest;" parent="5WoYeaTMIYlhVhKQOqjA-12" vertex="1"><mxGeometry y="34" width="460" height="140" as="geometry"/></mxCell><mxCell id="5WoYeaTMIYlhVhKQOqjA-16" value="ChessGUI" style="swimlane;fontStyle=1;align=center;verticalAlign=top;childLayout=stackLayout;horizontal=1;startSize=26;horizontalStack=0;resizeParent=1;resizeParentMax=0;resizeLast=0;collapsible=1;marginBottom=0;" parent="1" vertex="1"><mxGeometry x="40" y="200" width="200" height="204" as="geometry"/></mxCell><mxCell id="5WoYeaTMIYlhVhKQOqjA-17" value="engine:ChessEngine&#10;gameUI:JFrame&#10;board:ChessBoard&#10;menuBar:JMenubar&#10;menu:JMenu&#10;selected:ChessTile&#10;nextValidMoves:List&lt;ChessTile&gt;&#10;&#10;&#10;" style="text;strokeColor=none;fillColor=none;align=left;verticalAlign=top;spacingLeft=4;spacingRight=4;overflow=hidden;rotatable=0;points=[[0,0.5],[1,0.5]];portConstraint=eastwest;" parent="5WoYeaTMIYlhVhKQOqjA-16" vertex="1"><mxGeometry y="26" width="200" height="144" as="geometry"/></mxCell><mxCell id="5WoYeaTMIYlhVhKQOqjA-18" value="" style="line;strokeWidth=1;fillColor=none;align=left;verticalAlign=middle;spacingTop=-1;spacingLeft=3;spacingRight=3;rotatable=0;labelPosition=right;points=[];portConstraint=eastwest;" parent="5WoYeaTMIYlhVhKQOqjA-16" vertex="1"><mxGeometry y="170" width="200" height="8" as="geometry"/></mxCell><mxCell id="5WoYeaTMIYlhVhKQOqjA-19" value="+ method(type): type" style="text;strokeColor=none;fillColor=none;align=left;verticalAlign=top;spacingLeft=4;spacingRight=4;overflow=hidden;rotatable=0;points=[[0,0.5],[1,0.5]];portConstraint=eastwest;" parent="5WoYeaTMIYlhVhKQOqjA-16" vertex="1"><mxGeometry y="178" width="200" height="26" as="geometry"/></mxCell><mxCell id="5WoYeaTMIYlhVhKQOqjA-20" value="ChessTile" style="swimlane;fontStyle=1;align=center;verticalAlign=top;childLayout=stackLayout;horizontal=1;startSize=26;horizontalStack=0;resizeParent=1;resizeParentMax=0;resizeLast=0;collapsible=1;marginBottom=0;" parent="1" vertex="1"><mxGeometry x="560" y="560" width="200" height="250" as="geometry"/></mxCell><mxCell id="5WoYeaTMIYlhVhKQOqjA-21" value="currentPiece:ChessPiece&#10;occupation:TILESTATE" style="text;strokeColor=none;fillColor=none;align=left;verticalAlign=top;spacingLeft=4;spacingRight=4;overflow=hidden;rotatable=0;points=[[0,0.5],[1,0.5]];portConstraint=eastwest;" parent="5WoYeaTMIYlhVhKQOqjA-20" vertex="1"><mxGeometry y="26" width="200" height="174" as="geometry"/></mxCell><mxCell id="5WoYeaTMIYlhVhKQOqjA-22" value="" style="line;strokeWidth=1;fillColor=none;align=left;verticalAlign=middle;spacingTop=-1;spacingLeft=3;spacingRight=3;rotatable=0;labelPosition=right;points=[];portConstraint=eastwest;" parent="5WoYeaTMIYlhVhKQOqjA-20" vertex="1"><mxGeometry y="200" width="200" height="8" as="geometry"/></mxCell><mxCell id="5WoYeaTMIYlhVhKQOqjA-23" value="getOccupation():TILESTATE&#10;setOccupation(TILESTATE):void" style="text;strokeColor=none;fillColor=none;align=left;verticalAlign=top;spacingLeft=4;spacingRight=4;overflow=hidden;rotatable=0;points=[[0,0.5],[1,0.5]];portConstraint=eastwest;" parent="5WoYeaTMIYlhVhKQOqjA-20" vertex="1"><mxGeometry y="208" width="200" height="42" as="geometry"/></mxCell><mxCell id="5WoYeaTMIYlhVhKQOqjA-25" value="&lt;p style=&quot;margin: 0px ; margin-top: 4px ; text-align: center&quot;&gt;&lt;i&gt;&amp;lt;&amp;lt;Enum&amp;gt;&amp;gt;&lt;/i&gt;&lt;/p&gt;&lt;p style=&quot;margin: 0px ; margin-top: 4px ; text-align: center&quot;&gt;TileState&lt;/p&gt;&lt;p style=&quot;margin: 0px ; margin-top: 4px ; text-align: center&quot;&gt;&lt;i&gt;&lt;br&gt;&lt;/i&gt;&lt;/p&gt;&lt;p style=&quot;margin: 0px ; margin-top: 4px ; text-align: center&quot;&gt;&lt;i&gt;FREE,&lt;/i&gt;&lt;/p&gt;&lt;p style=&quot;margin: 0px ; margin-top: 4px ; text-align: center&quot;&gt;&lt;i&gt;BLACK,&lt;/i&gt;&lt;/p&gt;&lt;p style=&quot;margin: 0px ; margin-top: 4px ; text-align: center&quot;&gt;&lt;i&gt;WHITE&lt;/i&gt;&lt;/p&gt;" style="verticalAlign=top;align=left;overflow=fill;fontSize=12;fontFamily=Helvetica;html=1;" parent="1" vertex="1"><mxGeometry x="314" y="40" width="200" height="140" as="geometry"/></mxCell><mxCell id="5WoYeaTMIYlhVhKQOqjA-26" value="&lt;p style=&quot;margin: 0px ; margin-top: 4px ; text-align: center&quot;&gt;&lt;i&gt;&amp;lt;&amp;lt;Enum&amp;gt;&amp;gt;&lt;/i&gt;&lt;/p&gt;&lt;p style=&quot;margin: 0px ; margin-top: 4px ; text-align: center&quot;&gt;&lt;i&gt;Figure&lt;/i&gt;&lt;/p&gt;&lt;p style=&quot;margin: 0px ; margin-top: 4px ; text-align: center&quot;&gt;&lt;i&gt;&lt;br&gt;&lt;/i&gt;&lt;/p&gt;&lt;p style=&quot;margin: 0px ; margin-top: 4px ; text-align: center&quot;&gt;&lt;i&gt;PAWN,&lt;/i&gt;&lt;/p&gt;&lt;p style=&quot;margin: 0px ; margin-top: 4px ; text-align: center&quot;&gt;&lt;i&gt;BISHOP,&lt;/i&gt;&lt;/p&gt;&lt;p style=&quot;margin: 0px ; margin-top: 4px ; text-align: center&quot;&gt;&lt;i&gt;KNIGHT,&lt;/i&gt;&lt;/p&gt;&lt;p style=&quot;margin: 0px ; margin-top: 4px ; text-align: center&quot;&gt;&lt;i&gt;ROOK,&lt;/i&gt;&lt;/p&gt;&lt;p style=&quot;margin: 0px ; margin-top: 4px ; text-align: center&quot;&gt;&lt;i&gt;QUEEN,&lt;/i&gt;&lt;/p&gt;&lt;p style=&quot;margin: 0px ; margin-top: 4px ; text-align: center&quot;&gt;&lt;i&gt;KING&lt;/i&gt;&lt;/p&gt;" style="verticalAlign=top;align=left;overflow=fill;fontSize=12;fontFamily=Helvetica;html=1;" parent="1" vertex="1"><mxGeometry x="565" y="40" width="190" height="166" as="geometry"/></mxCell><mxCell id="GpsUCiJZ8a6Xi9wLaE2B-5" value="ChessBoard" style="swimlane;fontStyle=1;align=center;verticalAlign=top;childLayout=stackLayout;horizontal=1;startSize=26;horizontalStack=0;resizeParent=1;resizeParentMax=0;resizeLast=0;collapsible=1;marginBottom=0;" parent="1" vertex="1"><mxGeometry x="540" y="240" width="240" height="240" as="geometry"/></mxCell><mxCell id="GpsUCiJZ8a6Xi9wLaE2B-6" value="gameBoard:ChessTile[][]&#10;engine:ChessEngine" style="text;strokeColor=none;fillColor=none;align=left;verticalAlign=top;spacingLeft=4;spacingRight=4;overflow=hidden;rotatable=0;points=[[0,0.5],[1,0.5]];portConstraint=eastwest;" parent="GpsUCiJZ8a6Xi9wLaE2B-5" vertex="1"><mxGeometry y="26" width="240" height="94" as="geometry"/></mxCell><mxCell id="GpsUCiJZ8a6Xi9wLaE2B-7" value="" style="line;strokeWidth=1;fillColor=none;align=left;verticalAlign=middle;spacingTop=-1;spacingLeft=3;spacingRight=3;rotatable=0;labelPosition=right;points=[];portConstraint=eastwest;" parent="GpsUCiJZ8a6Xi9wLaE2B-5" vertex="1"><mxGeometry y="120" width="240" height="8" as="geometry"/></mxCell><mxCell id="GpsUCiJZ8a6Xi9wLaE2B-8" value="movePiece(oldPosition, newPosition):void" style="text;strokeColor=none;fillColor=none;align=left;verticalAlign=top;spacingLeft=4;spacingRight=4;overflow=hidden;rotatable=0;points=[[0,0.5],[1,0.5]];portConstraint=eastwest;" parent="GpsUCiJZ8a6Xi9wLaE2B-5" vertex="1"><mxGeometry y="128" width="240" height="112" as="geometry"/></mxCell><mxCell id="rDvw2aH49WmBoXThXa1J-1" style="rounded=0;orthogonalLoop=1;jettySize=auto;html=1;endArrow=classic;endFill=0;exitX=1;exitY=0.599;exitDx=0;exitDy=0;exitPerimeter=0;" parent="1" source="5WoYeaTMIYlhVhKQOqjA-17" target="GpsUCiJZ8a6Xi9wLaE2B-6" edge="1"><mxGeometry relative="1" as="geometry"/></mxCell><mxCell id="rDvw2aH49WmBoXThXa1J-3" style="edgeStyle=none;rounded=0;orthogonalLoop=1;jettySize=auto;html=1;endArrow=classic;endFill=0;" parent="1" source="GpsUCiJZ8a6Xi9wLaE2B-6" edge="1"><mxGeometry relative="1" as="geometry"><mxPoint x="660" y="560" as="targetPoint"/><Array as="points"><mxPoint x="820" y="320"/><mxPoint x="820" y="520"/><mxPoint x="660" y="520"/></Array></mxGeometry></mxCell><mxCell id="rDvw2aH49WmBoXThXa1J-4" style="edgeStyle=none;rounded=0;orthogonalLoop=1;jettySize=auto;html=1;endArrow=classic;endFill=0;" parent="1" source="5WoYeaTMIYlhVhKQOqjA-9" target="5WoYeaTMIYlhVhKQOqjA-16" edge="1"><mxGeometry relative="1" as="geometry"><Array as="points"><mxPoint x="250" y="90"/></Array></mxGeometry></mxCell><mxCell id="rDvw2aH49WmBoXThXa1J-5" style="edgeStyle=none;rounded=0;orthogonalLoop=1;jettySize=auto;html=1;endArrow=classic;endFill=0;" parent="1" source="5WoYeaTMIYlhVhKQOqjA-9" edge="1"><mxGeometry relative="1" as="geometry"><mxPoint x="220" y="480" as="targetPoint"/><Array as="points"><mxPoint x="10" y="90"/><mxPoint x="10" y="180"/><mxPoint x="10" y="450"/><mxPoint x="220" y="450"/></Array></mxGeometry></mxCell><mxCell id="rDvw2aH49WmBoXThXa1J-6" value="ChessPiece" style="swimlane;fontStyle=1;align=center;verticalAlign=top;childLayout=stackLayout;horizontal=1;startSize=26;horizontalStack=0;resizeParent=1;resizeParentMax=0;resizeLast=0;collapsible=1;marginBottom=0;" parent="1" vertex="1"><mxGeometry x="230" y="710" width="200" height="270" as="geometry"/></mxCell><mxCell id="rDvw2aH49WmBoXThXa1J-7" value="color:String&#10;type:Figure&#10;uniCodePicture:String&#10;figureId:String" style="text;strokeColor=none;fillColor=none;align=left;verticalAlign=top;spacingLeft=4;spacingRight=4;overflow=hidden;rotatable=0;points=[[0,0.5],[1,0.5]];portConstraint=eastwest;" parent="rDvw2aH49WmBoXThXa1J-6" vertex="1"><mxGeometry y="26" width="200" height="174" as="geometry"/></mxCell><mxCell id="rDvw2aH49WmBoXThXa1J-8" value="" style="line;strokeWidth=1;fillColor=none;align=left;verticalAlign=middle;spacingTop=-1;spacingLeft=3;spacingRight=3;rotatable=0;labelPosition=right;points=[];portConstraint=eastwest;" parent="rDvw2aH49WmBoXThXa1J-6" vertex="1"><mxGeometry y="200" width="200" height="70" as="geometry"/></mxCell><mxCell id="_PkmolD-CXsGj8FJPGat-1" style="edgeStyle=orthogonalEdgeStyle;rounded=0;orthogonalLoop=1;jettySize=auto;html=1;entryX=0.694;entryY=0.002;entryDx=0;entryDy=0;entryPerimeter=0;endArrow=classic;endFill=0;" parent="1" source="GpsUCiJZ8a6Xi9wLaE2B-6" target="5WoYeaTMIYlhVhKQOqjA-12" edge="1"><mxGeometry relative="1" as="geometry"><Array as="points"><mxPoint x="359" y="350"/></Array></mxGeometry></mxCell><mxCell id="2" style="edgeStyle=orthogonalEdgeStyle;rounded=0;orthogonalLoop=1;jettySize=auto;html=1;entryX=0.5;entryY=0;entryDx=0;entryDy=0;" edge="1" parent="1" source="5WoYeaTMIYlhVhKQOqjA-21" target="rDvw2aH49WmBoXThXa1J-6"><mxGeometry relative="1" as="geometry"/></mxCell></root></mxGraphModel></diagram></mxfile>